<svg width="200" height="200" viewBox="0 0 200 200" fill="none" xmlns="http://www.w3.org/2000/svg">
<g clip-path="url(#clip0_1_2)">
<rect width="200" height="200" rx="40" fill="#0B0C10"/>
<g filter="url(#filter0_f_1_2)">
<path d="M-24.4398 183.972C-43.6398 199.172 -26.1065 233.972 -14.9398 249.472C53.5602 253.806 191.26 262.472 194.06 262.472C197.56 262.472 216.56 244.972 210.56 232.472C204.56 219.972 204.56 213.472 237.06 183.972C269.56 154.472 223.56 170.472 182.56 146.972C141.56 123.472 146.06 157.472 121.56 177.472C97.0602 197.472 85.5602 183.972 72.5602 183.972C59.5602 183.972 42.5602 183.972 39.5602 164.972C36.5602 145.972 -0.439823 164.972 -24.4398 183.972Z" fill="#00FFA3" fill-opacity="0.5"/>
</g>
<g filter="url(#filter1_f_1_2)">
<path d="M-24.4398 216.945C-43.6398 232.145 -26.1065 266.945 -14.9398 282.445C53.5602 286.778 191.26 295.445 194.06 295.445C197.56 295.445 216.56 277.945 210.56 265.445C204.56 252.945 204.56 246.445 237.06 216.945C269.56 187.445 223.56 203.445 182.56 179.945C141.56 156.445 146.06 190.445 121.56 210.445C97.0602 230.445 85.5602 216.945 72.5602 216.945C59.5602 216.945 42.5602 216.945 39.5602 197.945C36.5602 178.945 -0.439823 197.945 -24.4398 216.945Z" fill="#0BA336" fill-opacity="0.5"/>
</g>
<g filter="url(#filter2_f_1_2)">
<path d="M-24.4398 249.917C-43.6398 265.117 -26.1065 299.917 -14.9398 315.417C53.5602 319.751 191.26 328.417 194.06 328.417C197.56 328.417 216.56 310.917 210.56 298.417C204.56 285.917 204.56 279.417 237.06 249.917C269.56 220.417 223.56 236.417 182.56 212.917C141.56 189.417 146.06 223.417 121.56 243.417C97.0602 263.417 85.5602 249.917 72.5602 249.917C59.5602 249.917 42.5602 249.917 39.5602 230.917C36.5602 211.917 -0.439823 230.917 -24.4398 249.917Z" fill="#00450F" fill-opacity="0.5"/>
</g>
<path d="M46.28 163.64C41.4027 163.64 37.1867 162.813 33.632 161.16C30.16 159.589 27.5147 157.233 25.696 154.092C23.8773 151.033 23.092 147.355 23.34 143.056L24.58 122.72C24.828 118.339 24.1667 115.197 22.596 113.296C21.0253 111.312 17.5533 110.32 12.18 110.32H-1.46V100.4H12.18C17.5533 100.4 21.0253 99.4493 22.596 97.548C24.1667 95.564 24.828 92.3813 24.58 88L23.34 67.664C23.092 63.2827 23.8773 59.5627 25.696 56.504C27.5147 53.4453 30.16 51.1307 33.632 49.56C37.1867 47.9067 41.4027 47.08 46.28 47.08H51.86V57H46.28C42.3947 57 39.4187 57.9093 37.352 59.728C35.2853 61.464 34.3347 64.1093 34.5 67.664L35.74 88C36.0707 93.3733 34.7893 97.672 31.896 100.896C29.0027 104.037 24.9107 105.608 19.62 105.608V104.988C24.828 104.988 28.8787 106.6 31.772 109.824C34.748 113.048 36.0707 117.347 35.74 122.72L34.5 143.056C34.3347 146.611 35.2853 149.256 37.352 150.992C39.4187 152.811 42.3947 153.72 46.28 153.72H51.86V163.64H46.28ZM99.5516 151.24C91.1196 151.24 84.6716 148.925 80.2076 144.296C75.7436 139.584 73.5116 133.219 73.5116 125.2V59.48H84.6716V125.2C84.6716 130.16 85.8702 134.087 88.2676 136.98C90.7476 139.873 94.5089 141.32 99.5516 141.32C104.512 141.32 108.232 139.873 110.712 136.98C113.192 134.087 114.432 130.16 114.432 125.2V59.48H125.592V125.2C125.592 133.301 123.36 139.667 118.896 144.296C114.514 148.925 108.066 151.24 99.5516 151.24ZM147.243 163.64V153.72H152.823C156.708 153.72 159.684 152.811 161.751 150.992C163.818 149.256 164.768 146.611 164.603 143.056L163.363 122.72C163.032 117.347 164.314 113.048 167.207 109.824C170.183 106.6 174.275 104.988 179.483 104.988V105.608C174.192 105.608 170.1 104.037 167.207 100.896C164.314 97.672 163.032 93.3733 163.363 88L164.603 67.664C164.768 64.1093 163.818 61.464 161.751 59.728C159.684 57.9093 156.708 57 152.823 57H147.243V47.08H152.823C157.7 47.08 161.875 47.9067 165.347 49.56C168.902 51.1307 171.588 53.4453 173.407 56.504C175.226 59.5627 176.011 63.2827 175.763 67.664L174.523 88C174.275 92.3813 174.936 95.564 176.507 97.548C178.078 99.4493 181.55 100.4 186.923 100.4H200.563V110.32H186.923C181.632 110.32 178.16 111.312 176.507 113.296C174.936 115.197 174.275 118.339 174.523 122.72L175.763 143.056C176.011 147.355 175.226 151.033 173.407 154.092C171.588 157.233 168.902 159.589 165.347 161.16C161.875 162.813 157.7 163.64 152.823 163.64H147.243Z" fill="white"/>
</g>
<defs>
<filter id="filter0_f_1_2" x="-241.9" y="-69.9" width="698.851" height="541.272" filterUnits="userSpaceOnUse" color-interpolation-filters="sRGB">
<feFlood flood-opacity="0" result="BackgroundImageFix"/>
<feBlend mode="normal" in="SourceGraphic" in2="BackgroundImageFix" result="shape"/>
<feGaussianBlur stdDeviation="104.45" result="effect1_foregroundBlur_1_2"/>
</filter>
<filter id="filter1_f_1_2" x="-241.9" y="-36.9276" width="698.851" height="541.272" filterUnits="userSpaceOnUse" color-interpolation-filters="sRGB">
<feFlood flood-opacity="0" result="BackgroundImageFix"/>
<feBlend mode="normal" in="SourceGraphic" in2="BackgroundImageFix" result="shape"/>
<feGaussianBlur stdDeviation="104.45" result="effect1_foregroundBlur_1_2"/>
</filter>
<filter id="filter2_f_1_2" x="-241.9" y="-3.95515" width="698.851" height="541.272" filterUnits="userSpaceOnUse" color-interpolation-filters="sRGB">
<feFlood flood-opacity="0" result="BackgroundImageFix"/>
<feBlend mode="normal" in="SourceGraphic" in2="BackgroundImageFix" result="shape"/>
<feGaussianBlur stdDeviation="104.45" result="effect1_foregroundBlur_1_2"/>
</filter>
<clipPath id="clip0_1_2">
<rect width="200" height="200" rx="40" fill="white"/>
</clipPath>
</defs>
</svg>
