<svg width="527" height="116" viewBox="0 0 527 116" fill="none" xmlns="http://www.w3.org/2000/svg">
<path d="M34.304 90.112C27.7334 90.112 21.8454 88.6613 16.64 85.76C11.52 82.7733 7.46668 78.72 4.48002 73.6C1.49335 68.3947 1.52588e-05 62.5067 1.52588e-05 55.936V0H12.032V55.68C12.032 60.3733 13.0134 64.4267 14.976 67.84C16.9387 71.2533 19.584 73.8987 22.912 75.776C26.3254 77.6533 30.1227 78.592 34.304 78.592C38.656 78.592 42.4534 77.6533 45.696 75.776C49.024 73.8987 51.6267 71.2533 53.504 67.84C55.4667 64.4267 56.448 60.416 56.448 55.808V0H68.608V56.064C68.608 62.6347 67.1147 68.48 64.128 73.6C61.1414 78.72 57.088 82.7733 51.968 85.76C46.848 88.6613 40.96 90.112 34.304 90.112ZM80.463 104.704V94.72H139.983V104.704H80.463Z" fill="#00FFA3"/>
<path d="M160.96 88.832V77.824H185.664C192.235 77.824 197.995 76.416 202.944 73.6C207.893 70.6987 211.733 66.7307 214.464 61.696C217.28 56.6613 218.688 50.8587 218.688 44.288C218.688 37.8027 217.28 32.0427 214.464 27.008C211.648 21.9733 207.765 18.048 202.816 15.232C197.867 12.416 192.149 11.008 185.664 11.008H161.088V0H185.92C192.405 0 198.379 1.10933 203.84 3.328C209.387 5.54666 214.165 8.66133 218.176 12.672C222.272 16.6827 225.429 21.376 227.648 26.752C229.952 32.128 231.104 38.016 231.104 44.416C231.104 50.7307 229.952 56.6187 227.648 62.08C225.429 67.456 222.315 72.1493 218.304 76.16C214.293 80.1707 209.515 83.2853 203.968 85.504C198.507 87.7227 192.576 88.832 186.176 88.832H160.96ZM153.024 88.832V0H165.056V88.832H153.024ZM273.886 90.112C267.827 90.112 262.366 88.7467 257.502 86.016C252.638 83.2 248.798 79.4027 245.982 74.624C243.166 69.8453 241.758 64.4267 241.758 58.368C241.758 52.3947 243.123 47.0187 245.854 42.24C248.67 37.4613 252.425 33.7067 257.118 30.976C261.897 28.16 267.23 26.752 273.118 26.752C278.75 26.752 283.699 28.032 287.966 30.592C292.318 33.152 295.689 36.6933 298.078 41.216C300.553 45.7387 301.79 50.8587 301.79 56.576C301.79 57.4293 301.747 58.368 301.662 59.392C301.577 60.3307 301.406 61.44 301.15 62.72H249.822V53.12H295.006L290.782 56.832C290.782 52.736 290.057 49.28 288.606 46.464C287.155 43.5627 285.107 41.344 282.462 39.808C279.817 38.1867 276.617 37.376 272.862 37.376C268.937 37.376 265.481 38.2293 262.494 39.936C259.507 41.6427 257.203 44.032 255.582 47.104C253.961 50.176 253.15 53.8027 253.15 57.984C253.15 62.2507 254.003 66.0053 255.71 69.248C257.417 72.4053 259.849 74.88 263.006 76.672C266.163 78.3787 269.79 79.232 273.886 79.232C277.299 79.232 280.414 78.6347 283.23 77.44C286.131 76.2453 288.606 74.4533 290.654 72.064L298.078 79.616C295.177 83.0293 291.593 85.632 287.326 87.424C283.145 89.216 278.665 90.112 273.886 90.112ZM333.679 90.112C330.266 90.112 327.023 89.6853 323.951 88.832C320.964 87.8933 318.191 86.6133 315.631 84.992C313.071 83.2853 310.852 81.28 308.975 78.976L316.399 71.552C318.618 74.2827 321.178 76.3307 324.079 77.696C326.98 78.976 330.223 79.616 333.807 79.616C337.391 79.616 340.164 79.0187 342.127 77.824C344.09 76.544 345.071 74.7947 345.071 72.576C345.071 70.3573 344.26 68.6507 342.639 67.456C341.103 66.176 339.098 65.152 336.623 64.384C334.148 63.5307 331.503 62.72 328.687 61.952C325.956 61.0987 323.354 60.032 320.879 58.752C318.404 57.472 316.356 55.7227 314.735 53.504C313.199 51.2853 312.431 48.3413 312.431 44.672C312.431 41.0027 313.327 37.8453 315.119 35.2C316.911 32.4693 319.386 30.3787 322.543 28.928C325.786 27.4773 329.668 26.752 334.191 26.752C338.97 26.752 343.194 27.6053 346.863 29.312C350.618 30.9333 353.69 33.408 356.079 36.736L348.655 44.16C346.948 41.9413 344.815 40.2347 342.255 39.04C339.78 37.8453 336.964 37.248 333.807 37.248C330.479 37.248 327.919 37.8453 326.127 39.04C324.42 40.1493 323.567 41.728 323.567 43.776C323.567 45.824 324.335 47.4027 325.871 48.512C327.407 49.6213 329.412 50.56 331.887 51.328C334.447 52.096 337.092 52.9067 339.823 53.76C342.554 54.528 345.156 55.5947 347.631 56.96C350.106 58.3253 352.111 60.16 353.647 62.464C355.268 64.768 356.079 67.7973 356.079 71.552C356.079 77.2693 354.031 81.792 349.935 85.12C345.924 88.448 340.506 90.112 333.679 90.112ZM369.104 88.832V28.032H380.624V88.832H369.104ZM374.864 15.872C372.731 15.872 370.981 15.1893 369.616 13.824C368.251 12.3733 367.568 10.5813 367.568 8.448C367.568 6.4 368.251 4.69333 369.616 3.328C370.981 1.87733 372.731 1.15199 374.864 1.15199C376.997 1.15199 378.747 1.87733 380.112 3.328C381.477 4.69333 382.16 6.4 382.16 8.448C382.16 10.5813 381.477 12.3733 380.112 13.824C378.747 15.1893 376.997 15.872 374.864 15.872ZM422.817 115.584C416.588 115.584 411.041 114.432 406.177 112.128C401.398 109.824 397.558 106.581 394.657 102.4L402.081 94.848C404.556 98.0053 407.5 100.395 410.913 102.016C414.326 103.723 418.38 104.576 423.073 104.576C429.302 104.576 434.209 102.912 437.793 99.584C441.462 96.3413 443.297 91.9467 443.297 86.4V71.296L445.345 57.6L443.297 44.032V28.032H454.817V86.4C454.817 92.2027 453.452 97.28 450.721 101.632C448.076 105.984 444.321 109.397 439.457 111.872C434.678 114.347 429.132 115.584 422.817 115.584ZM422.817 87.808C417.27 87.808 412.278 86.4853 407.841 83.84C403.489 81.1947 400.033 77.568 397.473 72.96C394.913 68.2667 393.633 63.0187 393.633 57.216C393.633 51.4133 394.913 46.2507 397.473 41.728C400.033 37.12 403.489 33.4933 407.841 30.848C412.278 28.1173 417.27 26.752 422.817 26.752C427.596 26.752 431.82 27.6907 435.489 29.568C439.158 31.4453 442.06 34.0907 444.193 37.504C446.412 40.832 447.606 44.7573 447.777 49.28V65.408C447.521 69.8453 446.284 73.7707 444.065 77.184C441.932 80.512 439.03 83.1147 435.361 84.992C431.692 86.8693 427.51 87.808 422.817 87.808ZM425.121 76.928C428.876 76.928 432.161 76.1173 434.977 74.496C437.878 72.8747 440.097 70.6133 441.633 67.712C443.169 64.7253 443.937 61.2693 443.937 57.344C443.937 53.4187 443.126 50.0053 441.505 47.104C439.969 44.1173 437.793 41.8133 434.977 40.192C432.161 38.4853 428.833 37.632 424.993 37.632C421.153 37.632 417.782 38.4853 414.881 40.192C411.98 41.8133 409.676 44.1173 407.969 47.104C406.348 50.0053 405.537 53.376 405.537 57.216C405.537 61.056 406.348 64.4693 407.969 67.456C409.676 70.4427 411.98 72.7893 414.881 74.496C417.868 76.1173 421.281 76.928 425.121 76.928ZM514.734 88.832V53.376C514.734 48.768 513.283 44.9707 510.382 41.984C507.481 38.9973 503.726 37.504 499.118 37.504C496.046 37.504 493.315 38.1867 490.926 39.552C488.537 40.9173 486.659 42.7947 485.294 45.184C483.929 47.5733 483.246 50.304 483.246 53.376L478.51 50.688C478.51 46.08 479.534 41.984 481.582 38.4C483.63 34.816 486.489 32 490.158 29.952C493.827 27.8187 497.966 26.752 502.574 26.752C507.182 26.752 511.235 27.904 514.734 30.208C518.318 32.512 521.134 35.5413 523.182 39.296C525.23 42.9653 526.254 46.8907 526.254 51.072V88.832H514.734ZM471.726 88.832V28.032H483.246V88.832H471.726Z" fill="white"/>
</svg>
